<svg xmlns="http://www.w3.org/2000/svg" width="1200" height="630" viewBox="0 0 1200 630">
  <defs><radialGradient id="bg" cx="70%" cy="10%" r="90%"><stop stop-color="#153447"/><stop offset="1" stop-color="#070b0f"/></radialGradient><linearGradient id="a"><stop stop-color="#61d7ff"/><stop offset="1" stop-color="#65e0ad"/></linearGradient></defs>
  <rect width="1200" height="630" fill="url(#bg)"/>
  <g opacity=".22" stroke="#61d7ff" stroke-width="2"><path d="M90 80v470M150 80v470M210 80v470M270 80v470M930 80v470M990 80v470M1050 80v470M1110 80v470"/></g>
  <rect x="735" y="122" width="260" height="386" rx="42" fill="#0e202a" stroke="url(#a)" stroke-width="5"/>
  <g fill="#ff756d"><circle cx="790" cy="205" r="12"/><circle cx="915" cy="270" r="12"/><circle cx="820" cy="365" r="12"/><circle cx="925" cy="438" r="12"/></g>
  <g fill="#ffcc66"><circle cx="880" cy="188" r="9"/><circle cx="775" cy="300" r="9"/><circle cx="900" cy="360" r="9"/></g>
  <text x="92" y="245" fill="#e8f0f6" font-family="Arial, Helvetica, sans-serif" font-size="72" font-weight="700">Superconductor Sim</text>
  <text x="96" y="300" fill="#91a0ad" font-family="Arial, Helvetica, sans-serif" font-size="26">London / GL · Bean critical state · E–J · electrothermal quench</text>
  <text x="96" y="397" fill="#61d7ff" font-family="monospace" font-size="20">DATA-AWARE · STATIC · GITHUB PAGES</text>
  <text x="96" y="448" fill="#718491" font-family="Arial, Helvetica, sans-serif" font-size="18">Based on JTech-CO/Superconductor-Data-Research</text>
</svg>
